<svg width="24" height="24" viewBox="0 0 24 24" fill="none" xmlns="http://www.w3.org/2000/svg">
<path fill-rule="evenodd" clip-rule="evenodd" d="M5.6805 17.9295C5.30467 17.5537 5.30467 16.9444 5.6805 16.5685L16.5685 5.68052C16.9443 5.30469 17.5537 5.30469 17.9295 5.68052C18.3053 6.05635 18.3053 6.66569 17.9295 7.04152L7.0415 17.9295C6.66567 18.3054 6.05633 18.3054 5.6805 17.9295Z" fill="#737780"/>
<path fill-rule="evenodd" clip-rule="evenodd" d="M5.6805 5.68052C6.05633 5.30469 6.66567 5.30469 7.0415 5.68052L17.9295 16.5685C18.3053 16.9444 18.3053 17.5537 17.9295 17.9295C17.5537 18.3054 16.9443 18.3054 16.5685 17.9295L5.6805 7.04152C5.30467 6.66569 5.30467 6.05635 5.6805 5.68052Z" fill="#737780"/>
</svg>
